<svg xmlns="http://www.w3.org/2000/svg" viewBox="0 0 350 120">
    <rect x="5" y="5" width="340" height="110" rx="18" fill="#ffffff" stroke="#000000" stroke-width="4"/>
    <g transform="translate(10, 20) scale(0.55)">
        <path fill="#3DDC84" d="M125.8 47.9c-11.4 0-22.3 3.5-31.4 9.7l-15-26.1c-1.3-2.3-4.3-3.1-6.6-1.8-2.3 1.3-3.1 4.3-1.8 6.6l15.6 27c-30.8 17.5-51.4 50-51.4 86.8h181.2c0-36.8-20.6-69.3-51.4-86.8l15.6-27c1.3-2.3 0.5-5.3-1.8-6.6-2.3-1.3-5.3-0.5-6.6 1.8l-15 26.1c-9.1-6.2-20-9.7-31.4-9.7zm-40 85c-6.1 0-11-4.9-11-11s4.9-11 11-11 11 4.9 11 11-4.9 11-11 11zm80 0c-6.1 0-11-4.9-11-11s4.9-11 11-11 11 4.9 11 11-4.9 11-11 11z"/>
    </g>
    <g font-family="Arial, Helvetica, sans-serif" fill="#000000">
        <text x="135" y="47" font-size="28" font-weight="bold">Download for</text>
        <text x="135" y="96" font-size="52" font-weight="900">Android</text>
    </g>
</svg>
